# xmcd
#
# Track frame offsets: 
#        150
#        13174
#        48731
#        90576
#        117838
#        152712
#        169537
#        193283
#        211955
#        227373
#        275715
#        300826
#
# Disc length: 4322 seconds
#
# Revision: 0
# Processed by: cddbd v1.5.2PL0 Copyright (c) Steve Scherf et al.
# Submitted via: ExactAudioCopyFreeDBPlugin 1.0
#
DISCID=9910e00c
DTITLE=Rathgeber, Johann Valentin - Messe von Muri and Concerti (Cappell
DTITLE=a Murensis, ensemble arcimboldo)
DYEAR=2006
DGENRE=Messe - Concerti
TTITLE0=Missa XII solennis in D op. 12 'Messe von Muri' - 1. Kyrie
TTITLE1=Missa XII solennis in D op. 12 'Messe von Muri' - 2. Gloria
TTITLE2=Missa XII solennis in D op. 12 'Messe von Muri' - 3. Credo
TTITLE3=Missa XII solennis in D op. 12 'Messe von Muri' - 4. Sanctus
TTITLE4=Missa XII solennis in D op. 12 'Messe von Muri' - 5. Agnus Dei
TTITLE5=Concerto XIX in C aus 'Chelys sonora' op. 6 - Allegro - Adagio
TTITLE5=Allegro
TTITLE6=Concerto VI in d aus 'Chelys sonora' op. 6 - Allegro - Adagio 
TTITLE6=Allegro
TTITLE7=Concerto XX in C aus 'Chelys sonora' op. 6 - Allegro - Adagio 
TTITLE7=Presto
TTITLE8=Concerto IV in G aus 'Chelys sonora' op. 6 - Presto - Adagio -
TTITLE8=Allegro
TTITLE9=Tolonius, Christian Gottfried - Concerto XIII für Tromba marin
TTITLE9=a, Streicher, Pauken und B.c.
TTITLE10=Concerto I in B aus 'Chelys sonora' op. 6 - Allegro - Adagio 
TTITLE10=Allegro
TTITLE11=Concerto XIV in D aus 'Chelys sonora' op. 6 - Allegro - Adagi
TTITLE11=o - Allegro
EXTD=
EXTT0=
EXTT1=
EXTT2=
EXTT3=
EXTT4=
EXTT5=
EXTT6=
EXTT7=
EXTT8=
EXTT9=
EXTT10=
EXTT11=
PLAYORDER=
